<svg id="Layer_1" data-name="Layer 1" xmlns="http://www.w3.org/2000/svg" xmlns:xlink="http://www.w3.org/1999/xlink" viewBox="0 0 865.76 682.89"><defs><style>.cls-1{fill:#ccc;}.cls-2{fill:#3f3d56;}.cls-3{opacity:0.78;}.cls-4,.cls-5,.cls-7{fill:#e1e1e1;}.cls-5,.cls-6{opacity:0.7;}.cls-19,.cls-7{opacity:0.5;}.cls-8{fill:none;stroke:#3f3d56;stroke-miterlimit:10;}.cls-9{clip-path:url(#clip-path);}.cls-10,.cls-12{opacity:0.13;}.cls-11{fill:#0071f2;}.cls-13,.cls-15,.cls-17{opacity:0.2;}.cls-14{fill:#f9b499;}.cls-15,.cls-18{fill:#fff;}.cls-16{clip-path:url(#clip-path-2);}</style><clipPath id="clip-path"><path class="cls-1" d="M365.67,312.08s-46.2-5.47-76.59,18.24-56.54,122.8-55.93,170.21,18.24,71.13,62.62,90.58S422.82,603.27,469,588.68s61.39-65.66,60.79-93-31-59-41.34-65.65-39.51-20.67-54.1-42.56S398.5,318.16,365.67,312.08Z"/></clipPath><clipPath id="clip-path-2"><path class="cls-2" d="M480.5,583.14a33.46,33.46,0,0,1-1.89,2.9c6.84.77,16.71,3.19,24.94,10.4a79.25,79.25,0,0,1,6.07,5.86c8.5-11.41,18-47.44,28.84-62.26,27.87-38.29,26.28-109.43,27.17-126.72s-7.1-19.07-45.67-7.54-77.59,45.67-77.59,45.67l4.87,22.17c14.19-8.87,63-17.74,63-17.74a134.3,134.3,0,0,0-8.86,41.68C500.45,520.18,488,569.84,480.5,583.14Z"/></clipPath></defs><g class="cls-3"><path class="cls-4" d="M720.62,491c13.26-108.28-51-252.19-117.58-311.62C482.81,72.06,382.92,92.81,305.23,131.24S216.44,298,162.8,356,78.64,492.13,160,569.85s147,38.23,232.14,33.3,197.92,33.89,259,.14C693.77,579.73,714.76,538.83,720.62,491Z"/><path class="cls-5" d="M720.62,491c13.26-108.28-51-252.19-117.58-311.62C482.81,72.06,382.92,92.81,305.23,131.24S216.44,298,162.8,356,78.64,492.13,160,569.85s147,38.23,232.14,33.3,197.92,33.89,259,.14C693.77,579.73,714.76,538.83,720.62,491Z"/></g><g class="cls-6"><ellipse class="cls-4" cx="391.04" cy="592.13" rx="203.86" ry="63.52"/><ellipse class="cls-7" cx="391.04" cy="592.13" rx="203.86" ry="63.52"/></g><line class="cls-8" x1="383.91" y1="487.16" x2="383.91" y2="88.22"/><polyline class="cls-8" points="124.59 491.1 376.24 491.1 758.56 614.51"/><path class="cls-2" d="M239.23,481.75H221.8V194.32h35.88l-15.49-55.89H195.73l-15.48,55.89h35.87V481.75H198.69a17,17,0,0,0-17,16.7s0,.09,0,.13a.43.43,0,0,0,0,.05c0,.05,0,.1,0,.14h0c.52,4,17,7.23,37.24,7.23s36.72-3.22,37.24-7.23h.09A17,17,0,0,0,239.23,481.75Z"/><path class="cls-1" d="M470.78,68.43V406.87l254.8,41.92V26.51ZM719,165.34l-129.56,7.34V55.1L719,34.49ZM589.42,185.05,719,179.11V297.34l-129.56-6.06ZM578.91,290.79l-103.85-4.85V190.3l103.85-4.76Zm0-234V173.27l-103.85,5.88V73.3ZM475.06,297.08l103.85,6V418.53L475.06,402ZM589.42,420.2V303.66L719,311.11V440.82Z"/><path class="cls-1" d="M365.67,312.08s-46.2-5.47-76.59,18.24-56.54,122.8-55.93,170.21,18.24,71.13,62.62,90.58S422.82,603.27,469,588.68s61.39-65.66,60.79-93-31-59-41.34-65.65-39.51-20.67-54.1-42.56S398.5,318.16,365.67,312.08Z"/><g class="cls-9"><path class="cls-10" d="M477.49,585.45c-17.47-2.36-38.18-7.1-53.87-16.62-33.1-20.11-41.38-57.94-53.2-72.13s-33.11-13-42.57-28.38,5.91-128.87-21.28-136a62.69,62.69,0,0,0-17-2.42l-.52.39c-30.4,23.71-56.54,122.8-55.93,170.21s18.24,71.13,62.62,90.58S422.82,603.27,469,588.68A80.3,80.3,0,0,0,477.49,585.45Z"/></g><path class="cls-11" d="M347.48,333.51S317.33,339.27,312,344.6s-27.49,88.67-27.49,88.67,9.76-2.66,18.62.89,9.76,12.86,10.64,17.29,1.34,16,1.34,16,89.62-8,108.68-12.44,48.09-6.47,48.09-6.47-49-110.56-56.57-114.55-39-4.43-43.45-3.54S347.48,333.51,347.48,333.51Z"/><g class="cls-12"><path d="M317.78,436.24h0a.31.31,0,0,1-.27-.34L325,374.26a.3.3,0,0,1,.34-.26.3.3,0,0,1,.27.34L318.08,436A.3.3,0,0,1,317.78,436.24Z"/></g><g class="cls-12"><path d="M323.54,391a.33.33,0,0,1-.19-.06.3.3,0,0,1-.05-.43l10.19-13.3a.32.32,0,0,1,.43-.06.31.31,0,0,1,.06.43l-10.2,13.3A.3.3,0,0,1,323.54,391Z"/></g><g class="cls-12"><path d="M354.13,399a.3.3,0,0,1-.29-.21.3.3,0,0,1,.2-.38c.29-.1,29.08-9.33,48-9.33a.31.31,0,0,1,.31.31.3.3,0,0,1-.31.3c-18.8,0-47.51,9.21-47.79,9.3Z"/></g><g class="cls-12"><path d="M398.47,411.41a.31.31,0,0,1-.3-.25c-1.72-8.62-15.23-16.12-15.36-16.19a.3.3,0,0,1-.16-.23.32.32,0,0,1,.09-.26s2.09-2.13,1.69-4.16c-.33-1.61-3.74-2-5-2a.28.28,0,0,1-.23-.1.32.32,0,0,1-.08-.24L381,373.23a.31.31,0,0,1,.35-.27.32.32,0,0,1,.26.35l-1.89,14.44c1.17.05,4.86.36,5.28,2.45.37,1.89-1,3.72-1.59,4.42,2.18,1.25,13.69,8.19,15.33,16.42a.29.29,0,0,1-.24.36Z"/></g><path class="cls-11" d="M364,317s-16.56,5.32-18.92,9.46-.59,33.1-.59,36.65,2.07-2.07,3.84-6.21,8-10.34,10.05-9.75,3.25,2.95,3.25,6.8,4.73,9.16,8.87,12.12,8,5.91,8,5.91,8.57-12.42,10.64-15.67,1.77-10,2.07-12.41,5.62,6.5,6.8,4.13-2.66-4.43-6.8-10.93-3-13.3-9.16-18S368.76,315.77,364,317Z"/><g class="cls-13"><path d="M364,317s-16.56,5.32-18.92,9.46-.59,33.1-.59,36.65,2.07-2.07,3.84-6.21,8-10.34,10.05-9.75,3.25,2.95,3.25,6.8,4.73,9.16,8.87,12.12,8,5.91,8,5.91,8.57-12.42,10.64-15.67,1.77-10,2.07-12.41,5.62,6.5,6.8,4.13-2.66-4.43-6.8-10.93-3-13.3-9.16-18S368.76,315.77,364,317Z"/></g><path class="cls-11" d="M324.87,436.82s-10.2-14.63-22.61-16-27.49,8.87-27.94,12.41-3.54,22.61-1.33,25.28,10.64,4.87,27.05-.45S323.1,446.13,324.87,436.82Z"/><g class="cls-13"><path d="M324.87,436.82s-10.2-14.63-22.61-16-27.49,8.87-27.94,12.41-3.54,22.61-1.33,25.28,10.64,4.87,27.05-.45S323.1,446.13,324.87,436.82Z"/></g><path class="cls-14" d="M290.29,440.81s-16.64,6.6-17.3,19.51c-.36,7.14,11.53,10.2,23.95,10.2s30.15-15.52,41.67-22.17,38.14-22.17,41.24-23.5,13.74,2.21,18.18,3.54,12.86,1.34,12.86,1.34,6.2,9.75,9.31,9.75-6.65-14.63-8-17.74-23.06-10.19-25.72-10.19-64.73,15.51-74.05,19.06S290.29,440.81,290.29,440.81Z"/><path class="cls-2" d="M420,342.2l-13.51,76,97.55.44,14.51-72.07a4.49,4.49,0,0,0-4.26-5.36l-89.74-2.71A4.5,4.5,0,0,0,420,342.2Z"/><path class="cls-15" d="M420,342.2l-13.51,76,97.55.44,14.51-72.07a4.49,4.49,0,0,0-4.26-5.36l-89.74-2.71A4.5,4.5,0,0,0,420,342.2Z"/><polygon class="cls-2" points="406.45 418.2 358.95 451.79 467.58 448.69 504 418.64 406.45 418.2"/><g class="cls-13"><polygon points="406.45 418.2 358.95 451.79 467.58 448.69 504 418.64 406.45 418.2"/></g><path class="cls-14" d="M442.37,451.45s39-34.14,77.59-45.67,46.55-9.75,45.67,7.54-19.51,107.74-31.93,130.8-27.93,65.18-27.49,73.16,15.52,31.48,28.82,39.9,12,18.62,3.55,20.4-18.18,4.88-47-13.75-40.79-45.22-39-51.87,20.4-15.52,27.94-28.82,19.95-63,20.84-85.58a134.3,134.3,0,0,1,8.86-41.68s-48.77,8.87-63,17.74Z"/><path class="cls-2" d="M480.5,583.14a33.46,33.46,0,0,1-1.89,2.9c6.84.77,16.71,3.19,24.94,10.4a79.25,79.25,0,0,1,6.07,5.86c8.5-11.41,18-47.44,28.84-62.26,27.87-38.29,26.28-109.43,27.17-126.72s-7.1-19.07-45.67-7.54-77.59,45.67-77.59,45.67l4.87,22.17c14.19-8.87,63-17.74,63-17.74a134.3,134.3,0,0,0-8.86,41.68C500.45,520.18,488,569.84,480.5,583.14Z"/><g class="cls-16"><path class="cls-2" d="M480.5,583.14a33.46,33.46,0,0,1-1.89,2.9c6.84.77,16.71,3.19,24.94,10.4a79.25,79.25,0,0,1,6.07,5.86c8.5-11.41,18-47.44,28.84-62.26,27.87-38.29,26.28-109.43,27.17-126.72s-7.1-19.07-45.67-7.54-77.59,45.67-77.59,45.67l4.87,22.17c14.19-8.87,63-17.74,63-17.74a134.3,134.3,0,0,0-8.86,41.68C500.45,520.18,488,569.84,480.5,583.14Z"/></g><path class="cls-2" d="M383.91,487.16s21.89-.61,41.95-7.91-16.42-20.66-30.4-13.37A20.79,20.79,0,0,0,383.91,487.16Z"/><path class="cls-17" d="M383.91,487.16s21.89-.61,41.95-7.91-16.42-20.66-30.4-13.37A20.79,20.79,0,0,0,383.91,487.16Z"/><path class="cls-14" d="M326.2,458.55s-14.19,8-19.07,16.84,16.11,23.65,38.28,22.76,62.82-25,62.82-25,.44,39,8,53.2,42.12,48.78,55.86,57.64,59.86,42.13,66.95,47.45,20.4,15.07,23.5,15.51,35.48-39,43-52.32,14.19-41.23,11.53-47.44-8-.88-13.3,3.55-54.09,36.8-58.53,39a49,49,0,0,1-7.54,3.1s-39.9-38.13-61.18-67.39-23.06-66.95-31-81.14S426,424,408.67,425.73,355.46,436.82,326.2,458.55Z"/><path class="cls-2" d="M533.22,590.23c-9.38-9.15-44.55-56.35-58.44-83.48-20.34-39.76-22.53-53.31-30.51-67.5s-20-15.29-37.33-13.52-48.23,5-86.19,26.52c0,0-15.93,8.66-20.81,17.53s14.36,33.42,45.23,30.6c22.09-2,60.85-24.92,60.85-24.92s.92,36.73,8.46,50.92S456.6,575.16,470.35,584c8.72,5.63,30.44,21.05,47,33C521.49,602.12,528.82,594,533.22,590.23Z"/><path class="cls-11" d="M539,631.47c7.1,5.32,20.4,15.07,23.5,15.51s35.48-39,43-52.32,14.19-41.23,11.53-47.44-8-.88-13.3,3.55-54.09,36.8-58.53,39c-1.16.58-2.22,1.06-3.17,1.47-1.28,2.43-2.83,6.2-1.7,8.73,1.77,4,9.31,9.31,9.31,9.31l-13.42,20.12C537.45,630.29,538.4,631,539,631.47Z"/><path class="cls-18" d="M605.53,594.66c7.54-13.3,14.19-41.23,11.53-47.44-1.54-3.59-4-3.31-6.79-1.58,1.87,8.29,0,24.27-9.17,41.49-8.17,15.36-33.43,42.5-46.15,55.72,3.45,2.28,6.33,4,7.57,4.13C565.63,647.43,598,608,605.53,594.66Z"/><path class="cls-11" d="M535,657.18c-13.3-8.42-28.37-31.92-28.82-39.9a14.58,14.58,0,0,1,.21-2.62,12.77,12.77,0,0,0-7.3,2.62s-9.75-8.87-17.29-13.75c-5.4-3.49-12.37-4.48-15.91-4.76-6.44,5.29-12.39,9.57-13.36,13.19-1.77,6.65,10.2,33.25,39,51.87s38.58,15.52,47,13.75S548.34,665.61,535,657.18Z"/><path class="cls-18" d="M537.25,660.29c-11.53-6.66-35-11.09-50.1-21.29S476.06,619.94,465,612.84c-5.09-3.26-9.34-2.49-12.45-.71-1.54,6.92,10.46,33.23,39.05,51.7,28.82,18.63,38.58,15.52,47,13.75,5.6-1.18,8-6.09,5.15-11.71A24.12,24.12,0,0,0,537.25,660.29Z"/><path class="cls-2" d="M316.31,575.47s8.51-10.33,9.72-2.43-.6,22.49-6.68,28-9.12-3-9.12-3l3.65-4.87s3,6.08,5.47-3.64-4.87-8.51-4.87-8.51Z"/><path class="cls-2" d="M309.79,614.38c-5,3.73-21.44,3.73-26.48,0-10.66-7.89-8.83-46-8.83-46h44.1S320.45,606.49,309.79,614.38Z"/><path class="cls-2" d="M279.28,561.19a.31.31,0,0,1-.31-.31,6.67,6.67,0,0,1,2.3-5,6,6,0,0,0,0-9.19,6.6,6.6,0,0,1,0-10,6,6,0,0,0,0-9.19,6.62,6.62,0,0,1,0-10,6.13,6.13,0,0,0,2.14-4.6.31.31,0,1,1,.62,0,6.67,6.67,0,0,1-2.31,5,6,6,0,0,0,0,9.2,6.59,6.59,0,0,1,0,10,6,6,0,0,0,0,9.19,6.58,6.58,0,0,1,0,10,6.11,6.11,0,0,0-2.14,4.59A.3.3,0,0,1,279.28,561.19Z"/><path class="cls-2" d="M294.51,561.19a.31.31,0,0,1-.31-.31c0-2,1.19-2.94,2.34-3.88s2.11-1.73,2.11-3.4-1-2.52-2.11-3.41-2.34-1.92-2.34-3.88,1.19-2.95,2.34-3.89,2.11-1.73,2.11-3.41-1-2.52-2.11-3.41-2.34-1.92-2.34-3.89,1.19-2.94,2.34-3.89,2.11-1.73,2.11-3.41a.3.3,0,0,1,.3-.31.31.31,0,0,1,.31.31c0,2-1.19,3-2.33,3.89s-2.11,1.73-2.11,3.41,1,2.52,2.11,3.41,2.33,1.92,2.33,3.89-1.19,2.94-2.33,3.89-2.11,1.73-2.11,3.41,1,2.51,2.11,3.4,2.33,1.92,2.33,3.89-1.19,2.94-2.33,3.88-2.11,1.73-2.11,3.4A.31.31,0,0,1,294.51,561.19Z"/><path class="cls-2" d="M311.27,561.19a.31.31,0,0,1-.31-.31,6.67,6.67,0,0,1,2.3-5,6,6,0,0,0,0-9.19,6.6,6.6,0,0,1,0-10,6,6,0,0,0,0-9.19,6.62,6.62,0,0,1,0-10,6.13,6.13,0,0,0,2.14-4.6.31.31,0,0,1,.62,0,6.67,6.67,0,0,1-2.31,5,6,6,0,0,0,0,9.2,6.59,6.59,0,0,1,0,10,6,6,0,0,0,0,9.19,6.58,6.58,0,0,1,0,10,6.11,6.11,0,0,0-2.14,4.59A.31.31,0,0,1,311.27,561.19Z"/><path class="cls-2" d="M318.58,568.36c0,1.11-9.87,2-22.05,2s-22-.9-22-2,9.87-2,22-2S318.58,567.25,318.58,568.36Z"/><path class="cls-10" d="M318.58,568.36c0,1.11-9.87,2-22.05,2s-22-.9-22-2,9.87-2,22-2S318.58,567.25,318.58,568.36Z"/><path class="cls-14" d="M359.28,294s2.07,22.4,2.94,29.46,2.85,27.4,4.89,34.13,13.15,18.41,14.23,15.71,6.57-21,4.36-31.83-2.87-20.3-1.49-23,6.27-5.87,6.27-5.87a174.92,174.92,0,0,1-16.65-9.7C365.93,297.55,360.37,291.56,359.28,294Z"/><path class="cls-14" d="M358.46,297.17s12.77,10.69,22.57,14.55,24.85,3.65,27-1.45-3.72-45.4-8.77-56-10.46-10.78-19.36-11.59-26.77,6.46-29.9,15.08.43,20.82,3,28.05A53.44,53.44,0,0,0,358.46,297.17Z"/><path class="cls-2" d="M392.79,280.68a7.2,7.2,0,0,1-5.41-2.61,11.15,11.15,0,0,1-.53-13.47,6.88,6.88,0,0,1,11.11-.43,11.14,11.14,0,0,1,.53,13.46,7.14,7.14,0,0,1-5.44,3Zm-.24-18.51h-.23a6.57,6.57,0,0,0-5,2.8,10.52,10.52,0,0,0,.5,12.69,6.27,6.27,0,0,0,10.16-.4,10.52,10.52,0,0,0-.5-12.69A6.61,6.61,0,0,0,392.55,262.17Z"/><path class="cls-2" d="M406.47,278.6c-1.18,0-2.31-1-3.17-2.77a18.91,18.91,0,0,1-.53-13.33c.74-1.89,1.82-3,3-3s2.37.93,3.25,2.77a18.87,18.87,0,0,1,.53,13.32c-.74,1.9-1.82,3-3,3Zm-.59-18.5h-.06c-.94,0-1.84,1-2.48,2.63a18.26,18.26,0,0,0,.51,12.83c.76,1.58,1.74,2.46,2.68,2.42s1.84-1,2.48-2.62a16.66,16.66,0,0,0,.91-6.47h0a16.53,16.53,0,0,0-1.42-6.37C407.75,261,406.8,260.1,405.88,260.1Z"/><path class="cls-2" d="M399.81,267.66h0a.3.3,0,0,1-.27-.34,1.6,1.6,0,0,1,.76-1.14,2.33,2.33,0,0,1,2.16.25.3.3,0,1,1-.28.54,1.87,1.87,0,0,0-1.59-.26,1,1,0,0,0-.44.68A.31.31,0,0,1,399.81,267.66Z"/><path class="cls-2" d="M358.1,283a.29.29,0,0,1-.28-.19.31.31,0,0,1,.17-.4L384.63,272a.32.32,0,0,1,.4.17.31.31,0,0,1-.18.4L358.21,283A.2.2,0,0,1,358.1,283Z"/><path class="cls-2" d="M360.59,282.8s-1.79,3.55,3.24,3.73,8.4-2.26,6-5.25-6-5.94-2.33-9.94,10.91-7.38,6.87-11.85-18.93-.42-15.21-4,20.94-7.38,28.68-6.91S410,243,413.14,235.19s-1.26-22.34-11.65-21.54-18.14,10-22.75,10.54-14.07-4.46-22,.09-8.2,17.31-8.91,18.88-11.43,3.92-13.31,14.81,3.08,19.56,7.52,24.4,6.44,6.7,6.44,6.7Z"/><g class="cls-12"><path d="M339.17,268.1a.22.22,0,0,1-.19-.1,8.54,8.54,0,0,1-1.18-4.86.23.23,0,1,1,.45,0,8.37,8.37,0,0,0,1.11,4.58.24.24,0,0,1-.06.32A.31.31,0,0,1,339.17,268.1Z"/><path d="M339.77,259a.3.3,0,0,1-.15,0,.22.22,0,0,1,0-.32,15.9,15.9,0,0,1,6.19-4.4c6.21-2.74,15.13-4.34,23.75-5.89,8.1-1.46,15.75-2.83,20.67-5,5.72-2.56,7.5-7.31,6.74-10.89s-3.69-5.59-7.7-5.59c-2.93,0-4.9.75-5.85,2.24-1.52,2.36.05,5.86.06,5.9a.21.21,0,0,1-.11.3.23.23,0,0,1-.3-.11c-.07-.15-1.69-3.76,0-6.34,1.05-1.63,3.14-2.45,6.24-2.45,4.24,0,7.36,2.28,8.15,6s-1.08,8.75-7,11.4c-5,2.23-12.65,3.61-20.78,5.07C361,250.37,352.13,252,346,254.68a15.6,15.6,0,0,0-6,4.26A.24.24,0,0,1,339.77,259Z"/><path d="M344.81,279.74a.23.23,0,0,1-.21-.13c-.09-.2-2.09-4.85,7.87-9.48,3.93-1.82,8.25-3.58,12.84-5.22a.24.24,0,0,1,.3.14.23.23,0,0,1-.14.29c-4.58,1.64-8.89,3.39-12.8,5.21-9.52,4.42-7.67,8.82-7.65,8.86a.24.24,0,0,1-.11.31Z"/><path d="M369.63,263.9a.23.23,0,0,1-.22-.15.22.22,0,0,1,.14-.29c1.48-.49,2.35-.74,2.35-.74a.22.22,0,0,1,.28.15.23.23,0,0,1-.15.29s-.86.25-2.33.73Z"/></g><path class="cls-14" d="M362.29,286.59s-5.73-8.26-11.78-4.94-1.33,15.11,2.3,19.21,10.67-3.51,11.37-5.46"/><path class="cls-1" d="M378.37,381.15,296,340.82V284.17a5.11,5.11,0,0,0-5.12-5.11h-135a5.12,5.12,0,0,0-5.12,5.12V385a5.13,5.13,0,0,0,5.12,5.12h135A5.12,5.12,0,0,0,296,385V359.7Z"/><rect class="cls-17" x="162.47" y="289.74" width="34.18" height="89.73"/><rect class="cls-17" x="284.2" y="289.74" width="4.27" height="89.73"/><g class="cls-13"><path d="M274.64,292.18h-67.3a.3.3,0,0,1-.3-.31.29.29,0,0,1,.3-.3h67.3a.3.3,0,0,1,.31.3A.31.31,0,0,1,274.64,292.18Z"/></g><g class="cls-13"><path d="M274.64,301.8h-67.3a.31.31,0,0,1,0-.62h67.3a.31.31,0,0,1,0,.62Z"/></g><g class="cls-13"><path d="M274.64,311.41h-67.3a.3.3,0,0,1-.3-.31.29.29,0,0,1,.3-.3h67.3a.3.3,0,0,1,.31.3A.31.31,0,0,1,274.64,311.41Z"/></g><g class="cls-13"><path d="M274.64,321h-67.3a.29.29,0,0,1-.3-.3.3.3,0,0,1,.3-.31h67.3a.31.31,0,0,1,.31.31A.3.3,0,0,1,274.64,321Z"/></g><g class="cls-13"><path d="M274.64,344.53h-67.3a.31.31,0,0,1,0-.62h67.3a.31.31,0,0,1,0,.62Z"/></g><g class="cls-13"><path d="M274.64,353.07h-67.3a.29.29,0,0,1-.3-.3.3.3,0,0,1,.3-.31h67.3a.31.31,0,0,1,.31.31A.3.3,0,0,1,274.64,353.07Z"/></g><g class="cls-13"><path d="M274.64,361.62h-67.3a.3.3,0,0,1-.3-.31.29.29,0,0,1,.3-.3h67.3a.3.3,0,0,1,.31.3A.31.31,0,0,1,274.64,361.62Z"/></g><g class="cls-13"><path d="M274.64,379.35h-67.3a.29.29,0,0,1-.3-.3.3.3,0,0,1,.3-.31h67.3a.31.31,0,0,1,.31.31A.3.3,0,0,1,274.64,379.35Z"/></g><g class="cls-13"><path d="M162.48,379.78l-.11,0a.31.31,0,0,1-.18-.4l34.18-89.73a.31.31,0,1,1,.58.22l-34.19,89.73A.31.31,0,0,1,162.48,379.78Z"/></g><g class="cls-19"><ellipse class="cls-4" cx="680.55" cy="614.51" rx="29.66" ry="13.31"/><ellipse class="cls-7" cx="680.55" cy="614.51" rx="29.66" ry="13.31"/></g><path class="cls-2" d="M645.84,417.68c3.18,1.39,10.94,1.21,10.95,1.21s-1.67-5.08-1.82-5.39c-1.7-3.57-7.09-9.45-11.47-8.86a5.24,5.24,0,0,0-4.21,6.56C640,414.24,643.14,416.5,645.84,417.68Z"/><path class="cls-2" d="M747.57,391.24c-4.4-.47-9.62,5.56-11.23,9.17-.14.31-1.75,5.44-1.67,5.44h.09c-.83.94-1.71,2-2.65,3.1-1.72,2.12-3.65,4.52-5.57,7.28a93,93,0,0,0-5.76,9.19,67.64,67.64,0,0,0-4.93,11.09,1,1,0,0,0,0,.14c0-1.29,0-4.92-.07-5.2-.51-3.91-3.8-11.19-8.15-12a5.24,5.24,0,0,0-6,4.92c-.25,3.12,2,6.23,4.21,8.2,2.48,2.22,9.37,4.36,9.92,4.53a91.7,91.7,0,0,0-2.91,12c-.42,2.37-.78,4.77-1.1,7.17,0-1.12,0-2.12-.06-2.26-.51-3.92-3.79-11.19-8.14-12a5.23,5.23,0,0,0-6,4.92c-.25,3.11,2,6.23,4.2,8.19s8.07,3.95,9.63,4.44c-.12.93-.24,1.85-.35,2.78-.53,4.44-1,8.87-1.68,13.2-.22,1.53-.5,3-.76,4.52,0-1,0-1.83-.06-2-.51-3.92-3.79-11.19-8.14-12a5.23,5.23,0,0,0-6,4.92c-.26,3.11,2,6.23,4.2,8.19s7.51,3.75,9.35,4.35c-.33,1.53-.65,3.06-1,4.52-.28,1-.49,2-.83,2.95S705.3,493,705,494c-.67,1.83-1.34,3.71-2,5.48-.47,1.23-.94,2.4-1.42,3.57.24-1.52.65-4.5.66-4.75a20.41,20.41,0,0,0-2.73-9.89,6.46,6.46,0,0,0-.07-1.16A5.24,5.24,0,0,0,693,482.8c-4.27,1.14-7,8.64-7.19,12.59,0,.23.14,2.77.27,4.37-.22-.93-.42-1.83-.65-2.79-.45-1.89-.95-3.76-1.48-5.78-.3-1-.59-1.94-.89-2.92s-.69-2-1-3c-.85-2.31-1.82-4.61-2.85-6.91,1.66-.39,7.52-1.89,9.87-3.69s4.82-4.74,4.8-7.86a5.24,5.24,0,0,0-5.66-5.36c-4.39.48-8.21,7.48-9,11.35,0,.25-.31,3.09-.42,4.65-.63-1.38-1.25-2.75-1.93-4.12-2-4-4.08-7.91-6.17-11.86-.64-1.21-1.27-2.42-1.9-3.63.59-.13,7.59-1.76,10.23-3.78,2.34-1.79,4.82-4.73,4.8-7.86a5.24,5.24,0,0,0-5.66-5.36c-4.4.48-8.21,7.49-9,11.36-.06.29-.43,4.38-.47,5.42-1.39-2.67-2.74-5.34-4-8a90.86,90.86,0,0,1-4.32-11.16c.27-.06,7.59-1.72,10.28-3.79,2.34-1.8,4.83-4.74,4.8-7.86a5.23,5.23,0,0,0-5.65-5.36c-4.4.48-8.22,7.49-9,11.36-.07.3-.46,4.7-.48,5.5-.06-.22-.16-.44-.22-.66a66.93,66.93,0,0,1-2.24-11.78c-.25-2.2-.36-4.31-.43-6.37,1.4-.17,7.76-1,10.39-2.61s5.32-4.18,5.64-7.29a5.23,5.23,0,0,0-5-5.94c-4.43,0-9,6.53-10.21,10.29-.07.21-.51,2.36-.81,3.93,0-.93,0-1.89,0-2.78,0-3.35.21-6.41.42-9.12.13-1.54.28-2.93.44-4.23,1.28-.88,6.4-4.5,8-7.08s2.79-6.15,1.64-9.06a5.23,5.23,0,0,0-7.2-3c-3.93,2-5,9.94-4.32,13.84.06.34,1.54,5.5,1.61,5.46l.08-.05c-.17,1.24-.34,2.58-.5,4.05-.27,2.71-.55,5.78-.63,9.14a91.68,91.68,0,0,0,.26,10.85,68.19,68.19,0,0,0,2,12c0,.05,0,.09,0,.14-.69-1.09-2.74-4.09-2.92-4.3-2.59-3-9.34-7.24-13.41-5.51a5.23,5.23,0,0,0-2.32,7.44c1.5,2.73,5.1,4.09,8,4.51,3.3.48,10.23-1.53,10.78-1.69a92.37,92.37,0,0,0,4.2,11.63c1,2.21,2,4.4,3,6.59-.63-.93-1.2-1.75-1.29-1.86-2.59-3-9.34-7.24-13.41-5.51a5.23,5.23,0,0,0-2.32,7.44c1.5,2.74,5.1,4.09,8,4.52s8.91-1.17,10.48-1.61c.41.83.82,1.67,1.24,2.51,2,4,4,8,5.88,11.93.66,1.4,1.26,2.8,1.86,4.2-.56-.82-1-1.51-1.13-1.61-2.58-3-9.33-7.24-13.41-5.51a5.24,5.24,0,0,0-2.32,7.44c1.51,2.73,5.11,4.09,8,4.51s8.33-1,10.19-1.52c.57,1.45,1.15,2.9,1.64,4.33.31,1,.68,1.91.94,2.92s.55,2,.82,2.94c.45,1.89.93,3.84,1.33,5.69.28,1.29.53,2.52.78,3.77-.63-1.4-1.94-4.11-2.08-4.33-2.1-3.34-8.13-8.57-12.41-7.48a5.24,5.24,0,0,0-3.42,7c1.07,2.93,4.42,4.81,7.24,5.68,3.11.94,10,.08,10.85,0,.41,2.06.79,4.06,1.12,6,1.16,6.57,1.88,12.08,2.32,15.94.08.69.15,1.3.21,1.88H674.39l4.28,83.54a11.93,11.93,0,0,0,11.92,11.33h0a12,12,0,0,0,11.93-11.33l4.28-83.54H694.39c.1-.19.18-.37.28-.57,1.7-3.54,4.06-8.64,6.61-14.88.81-2,1.64-4.09,2.47-6.27.83.17,7.64,1.56,10.81.84,2.88-.65,6.37-2.28,7.65-5.12a5.23,5.23,0,0,0-2.89-7.24c-4.19-1.41-10.59,3.35-12.94,6.53-.13.19-1.41,2.39-2.19,3.8.33-.9.67-1.76,1-2.69.67-1.82,1.28-3.66,1.95-5.64l.88-2.93c.31-1,.52-2,.79-3.06.57-2.4,1-4.85,1.44-7.34,1.6.59,7.3,2.57,10.26,2.36s6.64-1.28,8.34-3.9a5.23,5.23,0,0,0-1.76-7.59c-3.93-2-11,1.71-13.78,4.5-.17.17-2,2.39-2.92,3.64.24-1.5.48-3,.67-4.51.54-4.38,1-8.84,1.39-13.29.13-1.36.28-2.71.42-4.07.57.21,7.31,2.72,10.62,2.49,2.94-.21,6.63-1.29,8.34-3.91a5.24,5.24,0,0,0-1.76-7.59c-3.93-2-11,1.71-13.78,4.5-.21.21-2.78,3.41-3.39,4.26.32-3,.66-6,1.11-8.88a93.43,93.43,0,0,1,2.56-11.69c.26.1,7.28,2.75,10.67,2.51,2.94-.2,6.63-1.28,8.34-3.9a5.24,5.24,0,0,0-1.76-7.59c-3.93-2-11,1.71-13.78,4.49-.22.22-3,3.67-3.43,4.34.06-.23.1-.46.17-.68a67.47,67.47,0,0,1,4.63-11.06c1-2,2.08-3.8,3.16-5.55,1.26.63,7,3.43,10.11,3.55s6.74-.55,8.72-3a5.24,5.24,0,0,0-.92-7.74c-3.68-2.45-11.1.5-14.19,3-.17.13-1.73,1.68-2.84,2.83.5-.79,1-1.6,1.49-2.35,1.85-2.78,3.72-5.22,5.39-7.37,1-1.21,1.85-2.29,2.7-3.29,1.55,0,7.81-.21,10.55-1.5s5.72-3.59,6.37-6.65A5.25,5.25,0,0,0,747.57,391.24Zm-48.7,118.19c-2.66,6.12-5.11,11.12-6.87,14.58-.35.7-.67,1.32-1,1.89h-.29c-.09-.68-.18-1.42-.3-2.25-.53-3.89-1.38-9.45-2.69-16-.41-2.09-.89-4.32-1.4-6.6a56.7,56.7,0,0,0,6-2.84c2.26,2.45,8.06,5.32,8.81,5.69C700.42,505.79,699.64,507.67,698.87,509.43Z"/><path class="cls-2" d="M724.39,419.39c.07,0,1.42-5.16,1.46-5.5.55-3.92-.7-11.8-4.68-13.72a5.24,5.24,0,0,0-7.13,3.15c-1.07,2.94.29,6.54,1.89,9C717.81,415.25,724.39,419.38,724.39,419.39Z"/></svg>